<svg width="277" height="58" viewBox="0 0 277 58" fill="none" xmlns="http://www.w3.org/2000/svg">
<g clip-path="url(#clip0_83_73)">
<path d="M95.5749 53.7148C95.2119 53.986 94.7786 54.1923 94.2751 54.3337C93.7775 54.4752 93.2505 54.5459 92.706 54.5459C91.9976 54.5459 91.4062 54.4339 90.9144 54.2041C90.4285 53.9742 90.0303 53.65 89.72 53.2315C89.4097 52.8071 89.1872 52.3002 89.0467 51.7049C88.9062 51.1095 88.8359 50.4494 88.8359 49.7303C88.8359 48.1742 89.1755 46.9835 89.8605 46.1524C90.5456 45.3272 91.5233 44.9146 92.7997 44.9146C93.3852 44.9146 93.8828 44.9618 94.2868 45.0502C94.6967 45.1445 95.0655 45.2742 95.3934 45.4451L94.9719 46.7124C94.6908 46.5532 94.3805 46.4295 94.0409 46.3351C93.7013 46.2408 93.3325 46.1996 92.9461 46.1996C91.2189 46.1996 90.3524 47.3725 90.3524 49.7303C90.3524 50.1959 90.3992 50.638 90.487 51.0624C90.5807 51.4868 90.7271 51.8581 90.9437 52.1823C91.1545 52.5065 91.4355 52.7658 91.7809 52.9662C92.1264 53.1608 92.5596 53.261 93.069 53.261C93.5081 53.261 93.9004 53.1961 94.2458 53.0606C94.5913 52.925 94.8723 52.7717 95.0948 52.6008L95.569 53.7207L95.5749 53.7148ZM104.293 53.5852C103.93 53.8799 103.467 54.1097 102.917 54.2866C102.367 54.4575 101.775 54.5459 101.155 54.5459C100.458 54.5459 99.8548 54.4339 99.3454 54.2041C98.8361 53.9742 98.4145 53.65 98.0866 53.2315C97.7588 52.8071 97.5129 52.3002 97.3548 51.7167C97.1967 51.1272 97.1147 50.4671 97.1147 49.7303C97.1147 48.1624 97.4602 46.9658 98.1569 46.1465C98.8536 45.3272 99.8431 44.9146 101.131 44.9146C101.547 44.9146 101.957 44.9618 102.372 45.0502C102.788 45.1445 103.157 45.3154 103.485 45.5748C103.813 45.8341 104.082 46.1937 104.287 46.6711C104.492 47.1427 104.597 47.7616 104.597 48.5337C104.597 48.9404 104.562 49.3884 104.486 49.8776H98.6253C98.6253 50.414 98.678 50.8973 98.7892 51.3099C98.9005 51.7284 99.0703 52.0762 99.2986 52.365C99.5269 52.6538 99.8314 52.8719 100.2 53.0252C100.569 53.1784 101.026 53.2551 101.559 53.2551C101.974 53.2551 102.39 53.1843 102.8 53.037C103.216 52.8896 103.526 52.7187 103.731 52.5242L104.281 53.591L104.293 53.5852ZM101.155 46.1937C100.434 46.1937 99.8607 46.3823 99.4274 46.7654C98.9942 47.1427 98.7365 47.7969 98.6487 48.7165H103.175C103.175 47.7851 102.999 47.1309 102.648 46.7595C102.296 46.3823 101.793 46.1996 101.149 46.1996L101.155 46.1937ZM107.372 45.1268H108.374L108.649 46.2291H108.725C109.006 45.7988 109.369 45.4746 109.808 45.2447C110.253 45.0148 110.762 44.9028 111.33 44.9028C112.548 44.9028 113.456 45.2624 114.053 45.9874C114.65 46.7124 114.949 47.8912 114.949 49.5358C114.949 50.3079 114.849 51.0034 114.65 51.6223C114.451 52.2412 114.164 52.7658 113.801 53.1961C113.438 53.6264 112.993 53.9565 112.478 54.1864C111.963 54.4162 111.383 54.5341 110.751 54.5341C110.3 54.5341 109.943 54.5047 109.679 54.4516C109.416 54.3986 109.135 54.3043 108.83 54.1687V57.9941H107.372V45.1268ZM111.061 46.1937C110.44 46.1937 109.949 46.3528 109.591 46.677C109.234 47.0012 108.983 47.4963 108.836 48.1565V52.7128C109.053 52.8837 109.305 53.0134 109.586 53.1077C109.867 53.202 110.236 53.2433 110.698 53.2433C111.535 53.2433 112.203 52.9309 112.695 52.3002C113.186 51.6695 113.432 50.7382 113.432 49.5122C113.432 49.0112 113.391 48.5514 113.303 48.1447C113.216 47.7321 113.081 47.3843 112.894 47.0955C112.706 46.8067 112.46 46.5827 112.162 46.4236C111.863 46.2644 111.494 46.1819 111.055 46.1819L111.061 46.1937ZM117.718 45.1445C118.145 45.1209 118.59 45.0914 119.059 45.0502C119.527 45.0148 120.107 44.9971 120.804 44.9971C122.01 44.9971 122.87 45.1858 123.397 45.5571C123.918 45.9343 124.182 46.5002 124.182 47.2547C124.182 47.6849 124.059 48.1034 123.807 48.516C123.555 48.9286 123.146 49.2293 122.578 49.4297V49.5004C123.298 49.636 123.801 49.8894 124.094 50.2549C124.387 50.6203 124.533 51.1154 124.533 51.7284C124.533 52.6833 124.194 53.3788 123.509 53.8032C122.823 54.2335 121.805 54.4457 120.441 54.4457C119.931 54.4457 119.451 54.428 119.018 54.3986C118.579 54.3691 118.145 54.3337 117.724 54.2984V45.1445H117.718ZM119.176 53.0841C119.404 53.1077 119.633 53.1254 119.861 53.1372C120.089 53.149 120.353 53.1549 120.657 53.1549C121.471 53.1549 122.08 53.037 122.472 52.8071C122.87 52.5772 123.064 52.1764 123.064 51.6106C123.064 51.1685 122.894 50.8089 122.56 50.5319C122.226 50.2549 121.635 50.1193 120.78 50.1193H119.176V53.0782V53.0841ZM120.967 49.0053C121.184 49.0053 121.401 48.9699 121.606 48.8933C121.811 48.8225 121.998 48.7165 122.162 48.5927C122.326 48.463 122.46 48.3156 122.566 48.1447C122.671 47.9738 122.724 47.791 122.724 47.5906C122.724 47.1014 122.578 46.7595 122.285 46.5709C121.992 46.3823 121.483 46.288 120.751 46.288C120.364 46.288 120.054 46.2939 119.826 46.3057C119.603 46.3175 119.387 46.3293 119.176 46.341V49.0053H120.967ZM132.993 48.8756L133.046 47.738H132.993L132.244 48.9169L128.134 54.3219H127.297V45.1327H128.754V50.7382L128.702 51.8227H128.778L129.486 50.6851L133.596 45.1327H134.457V54.3219H132.999V48.8815L132.993 48.8756ZM143.96 53.7089C143.597 53.9801 143.163 54.1864 142.66 54.3278C142.162 54.4693 141.635 54.54 141.091 54.54C140.382 54.54 139.791 54.428 139.299 54.1982C138.813 53.9683 138.415 53.6441 138.105 53.2256C137.794 52.8012 137.572 52.2943 137.431 51.699C137.291 51.1036 137.221 50.4435 137.221 49.7244C137.221 48.1683 137.56 46.9776 138.245 46.1465C138.93 45.3213 139.908 44.9087 141.184 44.9087C141.77 44.9087 142.268 44.9559 142.672 45.0443C143.081 45.1386 143.45 45.2683 143.778 45.4392L143.357 46.7065C143.076 46.5473 142.765 46.4236 142.426 46.3293C142.086 46.2349 141.717 46.1937 141.331 46.1937C139.604 46.1937 138.737 47.3667 138.737 49.7244C138.737 50.19 138.784 50.6321 138.872 51.0565C138.965 51.4809 139.112 51.8522 139.328 52.1764C139.539 52.5006 139.82 52.7599 140.166 52.9604C140.511 53.1549 140.944 53.2551 141.454 53.2551C141.893 53.2551 142.285 53.1902 142.631 53.0547C142.976 52.9191 143.257 52.7658 143.479 52.5949L143.954 53.7148L143.96 53.7089ZM151.307 45.1268H152.309L152.584 46.2291H152.66C152.941 45.7988 153.304 45.4746 153.743 45.2447C154.188 45.0148 154.697 44.9028 155.265 44.9028C156.483 44.9028 157.391 45.2624 157.988 45.9874C158.585 46.7124 158.884 47.8912 158.884 49.5358C158.884 50.3079 158.784 51.0034 158.585 51.6223C158.386 52.2412 158.099 52.7658 157.736 53.1961C157.373 53.6264 156.928 53.9565 156.413 54.1864C155.898 54.4162 155.318 54.5341 154.686 54.5341C154.235 54.5341 153.878 54.5047 153.614 54.4516C153.351 54.3986 153.07 54.3043 152.765 54.1687V57.9941H151.307V45.1268ZM154.996 46.1937C154.375 46.1937 153.884 46.3528 153.526 46.677C153.169 47.0012 152.918 47.4963 152.771 48.1565V52.7128C152.988 52.8837 153.24 53.0134 153.521 53.1077C153.802 53.202 154.17 53.2433 154.633 53.2433C155.47 53.2433 156.138 52.9309 156.63 52.3002C157.121 51.6695 157.367 50.7382 157.367 49.5122C157.367 49.0112 157.326 48.5514 157.238 48.1447C157.151 47.7321 157.016 47.3843 156.829 47.0955C156.641 46.8067 156.395 46.5827 156.097 46.4236C155.798 46.2644 155.429 46.1819 154.99 46.1819L154.996 46.1937ZM161.507 45.8047C161.969 45.5217 162.508 45.3154 163.123 45.1799C163.737 45.0443 164.381 44.9795 165.049 44.9795C165.681 44.9795 166.191 45.0679 166.571 45.2388C166.952 45.4097 167.244 45.6337 167.449 45.9108C167.648 46.1878 167.783 46.4884 167.853 46.8185C167.918 47.1486 167.953 47.4786 167.953 47.8146C167.953 48.5514 167.935 49.2646 167.9 49.966C167.865 50.6675 167.847 51.3276 167.847 51.9524C167.847 52.4063 167.865 52.8366 167.9 53.2374C167.935 53.6441 168.006 54.0154 168.099 54.3573H167.022L166.636 53.0723H166.542C166.431 53.2433 166.296 53.4142 166.132 53.5793C165.968 53.7443 165.769 53.8917 165.541 54.0213C165.306 54.151 165.043 54.2571 164.739 54.3455C164.434 54.428 164.089 54.4752 163.696 54.4752C163.31 54.4752 162.947 54.4162 162.607 54.2925C162.274 54.1687 161.981 53.9978 161.741 53.7679C161.495 53.538 161.308 53.2669 161.167 52.9486C161.027 52.6303 160.956 52.2707 160.956 51.864C160.956 51.3276 161.068 50.8738 161.284 50.5142C161.501 50.1547 161.811 49.8658 162.209 49.6536C162.607 49.4356 163.082 49.2882 163.632 49.1939C164.188 49.0996 164.797 49.0583 165.465 49.0583C165.634 49.0583 165.804 49.0583 165.968 49.0583C166.132 49.0583 166.302 49.0701 166.472 49.0937C166.507 48.7282 166.524 48.3923 166.524 48.0975C166.524 47.4256 166.39 46.954 166.12 46.6829C165.851 46.4118 165.365 46.2762 164.662 46.2762C164.458 46.2762 164.235 46.2939 163.995 46.3234C163.755 46.3587 163.515 46.4 163.263 46.4589C163.011 46.512 162.777 46.5827 162.549 46.6652C162.32 46.7477 162.127 46.8362 161.957 46.9364L161.501 45.8165L161.507 45.8047ZM164.1 53.1784C164.44 53.1784 164.744 53.1313 165.014 53.0429C165.283 52.9486 165.511 52.8366 165.71 52.6951C165.904 52.5536 166.068 52.4004 166.196 52.2236C166.325 52.0526 166.419 51.8876 166.477 51.7284V50.2018C166.308 50.19 166.132 50.1782 165.956 50.1723C165.781 50.1665 165.605 50.1606 165.435 50.1606C165.061 50.1606 164.686 50.1841 164.329 50.2254C163.972 50.2667 163.655 50.3492 163.38 50.4671C163.105 50.5849 162.888 50.7441 162.724 50.9445C162.561 51.1449 162.479 51.4043 162.479 51.7108C162.479 52.141 162.631 52.4947 162.935 52.7658C163.24 53.0429 163.632 53.1784 164.106 53.1784H164.1ZM177.403 53.7089C177.04 53.9801 176.606 54.1864 176.103 54.3278C175.605 54.4693 175.078 54.54 174.534 54.54C173.825 54.54 173.234 54.428 172.742 54.1982C172.256 53.9683 171.858 53.6441 171.548 53.2256C171.237 52.8012 171.015 52.2943 170.874 51.699C170.734 51.1036 170.664 50.4435 170.664 49.7244C170.664 48.1683 171.003 46.9776 171.688 46.1465C172.373 45.3213 173.351 44.9087 174.627 44.9087C175.213 44.9087 175.711 44.9559 176.115 45.0443C176.524 45.1386 176.893 45.2683 177.221 45.4392L176.8 46.7065C176.519 46.5473 176.208 46.4236 175.869 46.3293C175.529 46.2349 175.16 46.1937 174.774 46.1937C173.047 46.1937 172.18 47.3667 172.18 49.7244C172.18 50.19 172.227 50.6321 172.315 51.0565C172.408 51.4809 172.555 51.8522 172.771 52.1764C172.982 52.5006 173.263 52.7599 173.609 52.9604C173.954 53.1549 174.387 53.2551 174.897 53.2551C175.336 53.2551 175.728 53.1902 176.074 53.0547C176.419 52.9191 176.7 52.7658 176.923 52.5949L177.397 53.7148L177.403 53.7089ZM185.681 53.7089C185.318 53.9801 184.885 54.1864 184.382 54.3278C183.884 54.4693 183.357 54.54 182.813 54.54C182.104 54.54 181.513 54.428 181.021 54.1982C180.535 53.9683 180.137 53.6441 179.827 53.2256C179.516 52.8012 179.294 52.2943 179.153 51.699C179.013 51.1036 178.942 50.4435 178.942 49.7244C178.942 48.1683 179.282 46.9776 179.967 46.1465C180.652 45.3213 181.63 44.9087 182.906 44.9087C183.492 44.9087 183.989 44.9559 184.393 45.0443C184.803 45.1386 185.172 45.2683 185.5 45.4392L185.078 46.7065C184.797 46.5473 184.487 46.4236 184.147 46.3293C183.808 46.2349 183.439 46.1937 183.053 46.1937C181.325 46.1937 180.459 47.3667 180.459 49.7244C180.459 50.19 180.506 50.6321 180.594 51.0565C180.687 51.4809 180.834 51.8522 181.05 52.1764C181.261 52.5006 181.542 52.7599 181.887 52.9604C182.233 53.1549 182.666 53.2551 183.176 53.2551C183.615 53.2551 184.007 53.1902 184.352 53.0547C184.698 52.9191 184.979 52.7658 185.201 52.5949L185.676 53.7148L185.681 53.7089ZM189.616 53.0311C190.067 53.1077 190.5 53.1431 190.916 53.1431C191.683 53.1431 192.215 52.9957 192.52 52.6951C192.824 52.3945 192.977 51.9701 192.977 51.416C192.977 50.9268 192.83 50.5201 192.532 50.2018C192.233 49.8835 191.712 49.7244 190.968 49.7244C190.763 49.7244 190.535 49.7303 190.295 49.7421C190.049 49.7538 189.827 49.7892 189.622 49.8541V53.0311H189.616ZM189.616 48.6398C189.909 48.5927 190.19 48.5573 190.459 48.5396C190.728 48.5219 190.98 48.5102 191.226 48.5102C191.847 48.5102 192.368 48.5809 192.789 48.7223C193.211 48.8638 193.545 49.0583 193.802 49.3C194.06 49.5417 194.235 49.8364 194.341 50.1723C194.446 50.5083 194.493 50.8679 194.493 51.251C194.493 52.365 194.183 53.1725 193.568 53.6795C192.953 54.1805 191.958 54.4339 190.582 54.4339C189.803 54.4339 188.995 54.3986 188.152 54.3219V45.1327H189.61V48.6457L189.616 48.6398ZM195.933 45.1268H197.391V54.316H195.933V45.1268ZM205.582 46.4118H202.936C202.901 46.9246 202.86 47.4786 202.825 48.074C202.789 48.6693 202.731 49.2646 202.661 49.8599C202.59 50.4553 202.491 51.0211 202.368 51.5693C202.245 52.1175 202.093 52.5949 201.899 53.0134C201.712 53.4319 201.478 53.762 201.203 54.0154C200.928 54.2689 200.606 54.3927 200.225 54.3927C199.991 54.3927 199.792 54.3809 199.622 54.3573C199.452 54.3337 199.3 54.2925 199.165 54.2276L199.382 52.9957C199.528 53.0429 199.686 53.0664 199.856 53.0664C200.096 53.0664 200.319 52.9604 200.512 52.7541C200.705 52.5477 200.875 52.1469 201.021 51.5693C201.168 50.9858 201.291 50.1841 201.384 49.1526C201.484 48.1211 201.548 46.7831 201.583 45.1268H207.022V54.316H205.565V46.4118H205.582ZM209.809 49.7185C209.809 48.1624 210.155 46.9717 210.84 46.1406C211.525 45.3154 212.514 44.9028 213.808 44.9028C214.493 44.9028 215.085 45.0148 215.588 45.2447C216.092 45.4746 216.507 45.7988 216.841 46.2173C217.169 46.6417 217.415 47.1486 217.573 47.7439C217.731 48.3392 217.813 48.9994 217.813 49.7185C217.813 51.2746 217.468 52.4652 216.783 53.2963C216.098 54.1215 215.108 54.5341 213.814 54.5341C213.129 54.5341 212.538 54.4221 212.034 54.1923C211.531 53.9624 211.109 53.6382 210.781 53.2197C210.453 52.7953 210.208 52.2884 210.049 51.6931C209.891 51.0977 209.809 50.4376 209.809 49.7185ZM211.326 49.7185C211.326 50.1841 211.373 50.6321 211.46 51.0624C211.554 51.4927 211.695 51.864 211.888 52.1823C212.081 52.5006 212.339 52.7599 212.655 52.9545C212.971 53.149 213.357 53.2492 213.802 53.2492C215.459 53.261 216.285 52.088 216.285 49.7185C216.285 49.241 216.238 48.7872 216.15 48.3569C216.057 47.9266 215.916 47.5553 215.723 47.237C215.53 46.9187 215.272 46.6652 214.956 46.4707C214.64 46.2821 214.259 46.1878 213.808 46.1878C212.151 46.176 211.326 47.349 211.326 49.7185ZM222.877 50.1782H222.034V54.316H220.576V45.1268H222.034V49.2823L222.819 49.023L225.74 45.1268H227.327L224.499 48.8225L223.732 49.4297L224.681 50.1665L227.731 54.3219H225.922L222.872 50.1841L222.877 50.1782Z" fill="white"/>
<path d="M110.107 24.9329C110.107 13.9636 94.3748 17.2054 94.3748 10.2443C94.3748 7.72739 96.0727 5.50523 100.862 5.50523C103.532 5.50523 105.95 6.0593 108.45 7.04365L109.041 3.24182C106.752 2.13369 103.743 1.53247 100.645 1.53247C93.397 1.53247 90.1709 5.45808 90.1709 10.4977C90.1709 21.1252 105.903 17.9717 105.903 25.2276C105.903 28.6404 103.696 30.6916 99.205 30.6916C95.938 30.6916 93.1862 29.8369 90.5984 28.2573L89.9192 32.23C92.4661 33.7272 95.6043 34.6644 99.246 34.6644C106.243 34.6644 110.101 30.951 110.101 24.9329H110.107ZM115.13 2.05117V34.0691H118.989V13.0676L118.948 9.60767L119.035 9.56641L120.265 12.8142L128.831 34.075H131.881L140.488 12.6432L141.717 9.40137L141.846 9.44263L141.758 12.9026V34.075H145.704V2.05706H140.827L131.711 24.6853L130.523 27.8859H130.394L129.164 24.6853L120.048 2.05706H115.13V2.05117ZM171.337 24.9329C171.337 13.9636 155.605 17.2054 155.605 10.2443C155.605 7.72739 157.303 5.50523 162.092 5.50523C164.762 5.50523 167.18 6.0593 169.68 7.04365L170.271 3.24182C167.982 2.13369 164.973 1.53247 161.876 1.53247C154.627 1.53247 151.401 5.45808 151.401 10.4977C151.401 21.1252 167.133 17.9717 167.133 25.2276C167.133 28.6404 164.926 30.6916 160.435 30.6916C157.168 30.6916 154.417 29.8369 151.829 28.2573L151.149 32.23C153.696 33.7272 156.835 34.6644 160.476 34.6644C167.473 34.6644 171.331 30.951 171.331 24.9329H171.337Z" fill="white"/>
<path d="M180.851 34.0691V8.54085L176.823 8.75305V34.0691H180.851ZM181.443 2.18089C181.443 0.772154 180.594 0 178.855 0C177.116 0 176.267 0.76626 176.267 2.18089C176.267 3.80183 177.116 4.35589 178.855 4.35589C180.594 4.35589 181.443 3.67215 181.443 2.18089ZM207.795 34.0691V17.2467C207.795 11.1874 204.528 8.15183 199.189 8.15183C196.349 8.15183 193.591 9.25996 191.853 11.1815H191.724L191.045 8.4937L188.164 8.70589V34.0632H192.192V14.7652C193.381 12.9321 195.922 11.9065 198.088 11.9065C201.818 11.9065 203.814 13.4862 203.814 17.2409V34.0632H207.801L207.795 34.0691ZM225.284 11.7827V8.62337H219.048V1.9628L215.91 2.30467L215.149 8.62337H211.501V11.7827H215.02V27.5382C215.02 32.065 217.269 34.4994 221.595 34.4994C222.954 34.4994 224.353 34.2459 225.114 33.8569L224.862 30.786C224.353 30.9982 223.463 31.1278 222.743 31.1278C220.454 31.1278 219.054 30.061 219.054 27.4144V11.7886H225.29L225.284 11.7827ZM234.295 31.8882C234.295 30.2201 233.487 29.2829 231.666 29.2829C229.845 29.2829 229.037 30.2201 229.037 31.8882C229.037 33.8098 229.845 34.5348 231.666 34.5348C233.487 34.5348 234.295 33.5504 234.295 31.8882ZM243.727 34.0632V21.1724C243.727 15.7083 246.906 12.3368 250.852 12.3368C251.742 12.3368 252.591 12.4252 253.352 12.6787L253.604 8.58211C252.925 8.36992 252.035 8.24024 251.104 8.24024C247.667 8.24024 244.909 10.374 243.346 14.0461H243.264L242.925 8.58211L239.704 8.79431V34.0691H243.733L243.727 34.0632ZM276.994 8.61748H273.007V25.6108C273.007 29.0707 271.016 30.8213 267.199 30.8213C263.3 30.8213 261.35 29.0295 261.35 25.6108V8.61748H257.363V25.6933C257.363 31.287 260.542 34.5289 267.158 34.5289C273.815 34.5289 276.994 31.3283 276.994 25.6933V8.61748Z" fill="white"/>
<path fill-rule="evenodd" clip-rule="evenodd" d="M64.8252 1.17285H5.56213C2.50589 1.17285 0 3.68972 0 6.77244V48.9816C0 52.0643 2.50003 54.5812 5.56213 54.5812H64.8252C67.8873 54.5812 70.3873 52.0643 70.3873 48.9816V6.77244C70.3873 3.68972 67.8873 1.17285 64.8252 1.17285Z" fill="white"/>
<path fill-rule="evenodd" clip-rule="evenodd" d="M37.2662 1.17285L63.7947 27.7562L37.032 54.5812H13.5598L31.1128 36.9867H1.20605V18.6495H31.2357L13.794 1.17285H37.2662Z" fill="#3DA8CC"/>
<path fill-rule="evenodd" clip-rule="evenodd" d="M33.7943 1.17285L60.3228 27.7562L33.5601 54.5812H10.0879L27.6409 36.9867H0V18.6495H27.758L10.3221 1.17285H33.7943Z" fill="#3DA8CC"/>
</g>
<defs>
<clipPath id="clip0_83_73">
<rect width="277" height="58" fill="white"/>
</clipPath>
</defs>
</svg>
